<?xml version="1.0" encoding="utf-8"?>
<!-- Generator: Adobe Illustrator 21.0.2, SVG Export Plug-In . SVG Version: 6.00 Build 0)  -->
<svg version="1.1" id="Capa_1" xmlns="http://www.w3.org/2000/svg" xmlns:xlink="http://www.w3.org/1999/xlink" x="0px" y="0px"
	 viewBox="0 0 769 106" style="enable-background:new 0 0 769 106;" xml:space="preserve">
<style type="text/css">
	.st0{fill:none;stroke:#010202;stroke-miterlimit:10;}
</style>
<path class="st0" d="M31.7,62.5h4.9c0,0,2.8,0.4,3.6,0.4c0.8,0,0.4-0.8,1.1-0.8c0.7,0,3.5,0.1,5.8,0.4s4.3,0.4,5.6,0.4
	s5.9-0.2,6.2-0.4c0.3-0.2,6.2-0.6,6.5-0.4s3.8,0.1,4.4-0.1c0.6-0.2,5.3-1.1,6-0.8s6.5,0.3,6.5,0.3s3.5-0.5,4.2-0.4s3.1-0.4,3.5,0
	c0.4,0.4,3.4,1.7,4.1,1.7s3.9,0,3.9,0s2.1,0.3,2.6,0.5s1.3-0.8,1.6-0.8s2.9-0.9,3.6-0.7s7.5-0.3,8.6-0.9s6.4-1.8,6.8-1.6
	c0.4,0.2,4-0.5,4.2-0.6c0.2-0.1,4.2,0,4.2,0s2.1-1.5,2.3-1.3c0.2,0.2,3.4-0.2,3.8,0c0.3,0.2,6.3,0.2,6.8-0.1
	c0.5-0.2,0.8-0.8,0.8-0.8s5.3,0.3,5.4,0c0.1-0.3,2.9-1.2,3.3-1.2s2.6,0.4,2.6,0c0-0.4,1.6-1.4,2.6-1.3c1,0.1,3.6,0.6,3.8,0.6
	c0.2,0,2.9,0,3.4-0.1c0.5-0.1,6.6,0.4,7.1,0.4c0.5,0,2,1.4,2.6,1c0.6-0.4,2.6-1.2,3.6-1.2s5.1,0.7,5.6,0.7c0.5,0,4.2-0.4,5-0.3
	c0.8,0.1,3.1,0.1,3.1,0.1v-2.5h1.3v2.4c0,0,0.9,0,0.9,0.1c0.1,0.1,1.3,2.2,1.8,2.2c0.5,0,1.4-0.3,2.1,0s6.3,3.2,7.6,4.8
	c0,0,1.7-0.2,2.1-0.6c0.5-0.4,4.6-2.1,5.2-2c0.6,0.1,7.2-2,7.4-2.3c0.2-0.3,2-0.6,2.4-0.6s4.7-1.9,5.6-2c0.9-0.1,3.2-0.4,3.5-0.4
	s2.1-0.4,3.1-0.5c0.9-0.1,1.8,0.8,2.3,0.7c0.5-0.1,3.8-0.1,4.1-0.2s2.1-1.1,3.9-1.2c1.7-0.1,4.1-1,4.1-1s2.7-0.8,3.8-0.8
	c1.2,0,3.5,0.7,4.2,0.2c0.6-0.5,1.7-1.4,2.7-1.4s2,0.6,2.4,0s2-0.9,2.3-0.8c0.3,0.1,2.1-0.1,2.7,0c0.6,0.1,2.2-0.7,2.6-0.9
	c0.4-0.2,2.2-0.3,2.2-0.3s2.9-1.1,3.5-1.4c0.6-0.3,2.2-0.8,5.1-0.8s4.8,0.8,4.8,0.8s1.5-0.2,1.9,0c0.3,0.2,2.2-0.2,3.2-0.2
	s4.1-0.5,7.4-0.1c3.2,0.4,3.9,0.9,3.9,0.9s1.8,0.7,2.5,0.9s2.1,0.3,3.6,1.3c1.4,1,3.2,0.6,3.2,0.6s3,0.8,4,0.9
	c1,0.2,3.4,1.2,4.8,1.2c1.4,0,4.9,0.9,6,0.2s6.1-1.6,6.4-2c0.3-0.5,0.8-0.6,1.3-1.2c0.5-0.6,2-0.1,2-0.1s3.8-1.9,4.6-2.3
	c0.8-0.4,3.7-2.8,4.1-2.8c0.3,0,1.7-0.8,2.4-0.8s3.4-1.3,4.2-1.7c0.8-0.3,2.6-1.3,3.7-1.2c1,0.1,2.8,0.6,4.2,1.3s4.8,0.3,5.2,0.5
	c0.5,0.2,2.2,0.6,3.1,0.6c0.9,0,2.6-0.2,2.8,0.1s1,1,2.8,0.6c1.9-0.3,2.1-0.8,2.1-0.8s1.6,1.2,1.6,1.5c-0.1,0.3,2.1,1.1,2.8,1.2
	s5.4,1.2,5.4,1.7s7.9,3.6,8.6,4.5c0.7,0.9,6,3.3,6.2,4.2c0.2,0.9,2.1,2.1,2.1,1.8c0-0.3,1.1-0.9,1.1-0.9l3.1-0.3
	c0,0,4.2-0.4,5.1-0.1s2.1,1,2.1,1l3.7-0.1c0,0,1.9,0,2.6,1.2c0.7,1.2,4.3,0.6,4.3,0.6s2.7-0.4,3.7-1.1s2.5-1.3,3.3-1.3
	c0.8,0.1,5,0.2,5.8,0.2c0.8,0.1,3.2,0,3.4-0.1c0.2-0.1,5.6,0.2,5.8,0.5c0.2,0.3,2.5-0.6,2.5-0.6l1.4,0.6c0,0,1.1,0.5,2.1,0.1
	c1-0.5,2-1.7,2.7-1.9c0.8-0.2,5,0.2,5,0.2s2.2,0.2,2.8-0.2c0.6-0.4,2.2-1.3,2.8-1.3c0.6-0.1,3.1-0.7,3.4-0.9
	c0.3-0.2,4.1,0.1,4.1,0.1s2.3-0.5,2.8-1c0.5-0.5,1.8-0.9,3.9-1c2.1-0.2,4.7-0.6,5.3-0.6s3.8-0.1,3.8-0.1s5.7-3.3,5.9-3.8
	c0.1-0.5,1.2,0,1.7,0.2c0.5,0.2,2,0.2,3.1-0.1s1.4-0.7,1.4-0.7s2.1-0.7,3.4-0.2s6,0.1,6,0.1l1.4-0.3c0,0,3.5-0.2,4.6,0.2
	c1.1,0.4,2.8,0.6,3.4,0.2s1.9-1.3,2.7-0.7c0.8,0.6,2-0.6,2-0.6s1.7-0.4,2.3,0.3c0.6,0.7,2.5-0.5,2.5-0.5s2.8-0.2,3.7-0.4
	s3-0.6,4-0.6s2.1-1.6,2.1-1.6l1.6-0.3c0,0,1.8-0.9,2.8-0.4s1.6,0.7,1.6,0.7l1.2-0.8c0,0,1.4,0.3,1.9,0.5c0.5,0.2,2.1,0.7,3.4,0
	c1.3-0.7,2-1.3,2-1.3l3.5,0.3c0,0,0.6,1,0.8,0.8c0.2-0.3,0.9-1.7,1.7-1c0.8,0.6,1.5,1.2,1.5,1.2l1.2,0.1c0,0,0.9,1.3,1.1,1.4
	c0.2,0.1,2.6-0.1,2.8,0.3c0.2,0.3,2.5,0.2,2.7,0.8s2.7-0.1,2.8,0.7c0.1,0.8,1.3,1.4,1.7,1.3s0.2-1,0.8-0.9c0.6,0.1,1.6,0.6,1.9,1
	s2.8,0.7,3.3,0.7s2.8,0.2,3,0.2c0.2,0.1,3,0.8,2.9,1c-0.1,0.2,1.4-0.1,1.4-0.1s2.1-0.2,2.9,0.1s2.4,0.8,3.2,0.8
	c0.8,0,2.3,0.2,2.8,0.8c0.5,0.5,3.5,0.2,4.5,0s3.3,0.1,3.8,0.5c0.5,0.4,1.4,0.8,2.1,0.8s2.8-0.2,3.3,0.4c0.5,0.6,4.4,0,4.4,0
	s3.4,1.4,3.5,2.1c0.1,0.7,1.9,0.4,1.7,0.8c-0.1,0.3,11.2,4.2,11.3,4.6c0.1,0.4,9.2-4,10-4.4c0.8-0.4,9.3,0.1,9.4,0.6
	c0.1,0.5,10.3,2.1,13.4,4.8c0,0,0.9-0.9,3.6,0.5c2.7,1.4,7.9,4.1,8.6,3.9c0.8-0.2,4.9,0,6.5,0c1.6,0,6.4-1.1,6.7-0.9
	c0.3,0.1,2,0.5,2,0.9c0,0,1.3-0.2,2.6-1.1s5.2-0.4,5.2-0.4s2-0.9,3.6-0.9s5.2-0.1,5.5,0s1.8-1.1,2.4-1.1s2,0,2,0s2.4-0.4,3.9-1.1
	c1.4-0.7,9.4-0.6,9.4-0.4s4.9,1.3,5.3,1.6s0.4,0.2,0.4,0.2"/>
</svg>
